<?xml version="1.0" standalone="no"?>
<!DOCTYPE svg PUBLIC "-//W3C//DTD SVG 20010904//EN"
 "http://www.w3.org/TR/2001/REC-SVG-20010904/DTD/svg10.dtd">
<svg version="1.0" xmlns="http://www.w3.org/2000/svg"
 width="500.000000pt" height="500.000000pt" viewBox="0 0 500.000000 500.000000"
 preserveAspectRatio="xMidYMid meet">

<g transform="translate(0.000000,500.000000) scale(0.100000,-0.100000)"
fill="#000000" stroke="none">
<path d="M1760 4701 c-424 -172 -658 -310 -844 -499 -187 -190 -315 -428 -372
-694 -29 -131 -24 -353 10 -483 50 -191 29 -168 485 -540 l405 -330 -617 -3
-617 -2 0 -120 0 -120 768 0 767 -1 305 -249 c168 -137 307 -249 310 -249 10
0 141 170 138 178 -2 5 -381 317 -844 694 l-840 685 -23 73 c-33 109 -45 235
-31 338 11 94 58 261 72 261 5 0 280 -244 611 -543 1073 -967 2111 -1901 2161
-1944 232 -202 657 -403 1006 -477 100 -22 105 -24 101 -47 -9 -65 -68 -124
-158 -160 -52 -21 -74 -24 -223 -24 -188 0 -264 13 -453 76 -142 46 -290 120
-407 200 -96 65 -258 205 -283 242 l-16 25 -858 6 c-472 3 -1019 9 -1215 12
l-358 6 0 -115 0 -115 233 -6 c127 -3 650 -9 1161 -12 l929 -6 68 -63 c296
-272 660 -435 1087 -486 180 -21 384 13 509 87 241 141 288 409 126 716 -21
40 -157 244 -302 453 -350 503 -339 485 -435 680 -144 289 -279 645 -366 964
-63 228 -80 335 -90 558 -10 228 -30 334 -81 435 -62 122 -187 224 -324 264
-89 26 -232 24 -314 -5 -78 -27 -166 -86 -216 -143 -51 -60 -114 -192 -122
-255 -3 -29 -9 -53 -13 -53 -14 0 -151 152 -213 235 -74 100 -177 273 -287
483 -54 102 -91 162 -100 161 -8 0 -112 -40 -230 -88z m205 -333 c271 -507
562 -786 953 -914 132 -43 244 -63 405 -71 119 -6 128 -7 131 -27 10 -51 77
-327 95 -388 l20 -68 -245 0 -244 0 0 -115 0 -115 283 0 283 0 63 -162 c34
-90 65 -169 68 -175 4 -10 -32 -13 -161 -13 l-166 0 0 -115 0 -115 218 0 218
0 38 -78 c73 -149 131 -240 406 -637 153 -220 285 -415 294 -433 l18 -34 -34
7 c-38 9 -182 53 -278 86 -107 37 -358 169 -465 245 -55 39 -131 100 -170 136
-62 57 -1559 1405 -2395 2157 -168 150 -318 286 -333 301 l-28 27 59 79 c138
182 394 352 757 503 66 28 125 50 130 50 6 0 42 -59 80 -131z m1248 -234 c25
-8 67 -34 92 -56 84 -74 114 -167 118 -354 l2 -109 -100 3 c-124 3 -192 14
-320 54 -134 40 -151 50 -166 95 -45 136 23 302 145 359 61 29 159 32 229 8z"/>
<path d="M0 1440 l0 -120 580 0 580 0 0 120 0 120 -580 0 -580 0 0 -120z"/>
</g>
</svg>
